<?xml version="1.0" encoding="iso-8859-1"?>
<!-- Generator: Adobe Illustrator 19.0.0, SVG Export Plug-In . SVG Version: 6.00 Build 0)  -->
<svg version="1.1" id="Layer_1" xmlns="http://www.w3.org/2000/svg" xmlns:xlink="http://www.w3.org/1999/xlink" x="0px" y="0px"
	 viewBox="0 0 512 512" style="enable-background:new 0 0 512 512;" xml:space="preserve">
<circle cx="256" cy="256" r="256"/>
<g>
	<path style="fill:#FFFFFF;" d="M168.424,292.168v-15.216h15.208v15.216H168.424z"/>
	<path style="fill:#FFFFFF;" d="M258.296,263.296l13.144,1.712c-1.44,9.056-5.12,16.144-11.024,21.264
		c-5.912,5.12-13.176,7.68-21.792,7.68c-10.784,0-19.456-3.52-26.008-10.576c-6.56-7.048-9.832-17.16-9.832-30.312
		c0-8.512,1.408-15.96,4.232-22.344c2.816-6.384,7.112-11.168,12.872-14.36s12.032-4.792,18.816-4.792c8.56,0,15.56,2.168,21,6.496
		c5.448,4.336,8.936,10.48,10.472,18.448l-12.984,2.008c-1.24-5.296-3.432-9.28-6.568-11.952c-3.152-2.672-6.944-4.008-11.4-4.008
		c-6.728,0-12.192,2.416-16.4,7.232c-4.2,4.832-6.304,12.464-6.304,22.896c0,10.584,2.024,18.28,6.08,23.08
		c4.064,4.808,9.36,7.2,15.888,7.2c5.24,0,9.616-1.608,13.136-4.832C255.136,274.928,257.36,269.984,258.296,263.296z"/>
	<path style="fill:#FFFFFF;" d="M277.888,252.768c0-14.6,4.056-25.416,12.168-32.44c6.784-5.832,15.04-8.76,24.792-8.76
		c10.832,0,19.696,3.552,26.568,10.648c6.872,7.104,10.312,16.912,10.312,29.432c0,10.144-1.512,18.128-4.56,23.936
		c-3.04,5.816-7.472,10.328-13.28,13.536c-5.824,3.216-12.168,4.832-19.04,4.832c-11.032,0-19.952-3.536-26.76-10.608
		C281.288,276.264,277.888,266.072,277.888,252.768z M291.624,252.768c0,10.096,2.192,17.648,6.6,22.672s9.944,7.528,16.624,7.528
		c6.632,0,12.152-2.52,16.552-7.568s6.6-12.744,6.6-23.088c0-9.744-2.216-17.128-6.64-22.152c-4.432-5.024-9.936-7.536-16.512-7.536
		c-6.68,0-12.216,2.496-16.624,7.504S291.624,242.672,291.624,252.768z"/>
</g>
<g>
</g>
<g>
</g>
<g>
</g>
<g>
</g>
<g>
</g>
<g>
</g>
<g>
</g>
<g>
</g>
<g>
</g>
<g>
</g>
<g>
</g>
<g>
</g>
<g>
</g>
<g>
</g>
<g>
</g>
</svg>
